<mxfile host="app.diagrams.net" modified="2022-03-12T13:16:01.489Z" agent="5.0 (Macintosh)" etag="08lXo6Wk_2iB3s53g16N" version="15.5.0" type="github">
  <diagram id="wq23OLVeQ7jhoGd0-QD0" name="Page-1">
    <mxGraphModel dx="652" dy="416" grid="1" gridSize="10" guides="1" tooltips="1" connect="1" arrows="1" fold="1" page="1" pageScale="1" pageWidth="850" pageHeight="1100" math="0" shadow="0">
      <root>
        <mxCell id="0" />
        <mxCell id="1" parent="0" />
        <mxCell id="1i7YaApMtN83JDX_QkKB-4" style="edgeStyle=orthogonalEdgeStyle;rounded=0;orthogonalLoop=1;jettySize=auto;html=1;fontSize=24;endArrow=none;endFill=0;entryX=0.549;entryY=0.127;entryDx=0;entryDy=0;entryPerimeter=0;" edge="1" parent="1" source="1i7YaApMtN83JDX_QkKB-3" target="1i7YaApMtN83JDX_QkKB-1">
          <mxGeometry relative="1" as="geometry">
            <mxPoint x="730" y="16.511627906976745" as="targetPoint" />
            <Array as="points">
              <mxPoint x="740" y="170" />
              <mxPoint x="740" y="170" />
            </Array>
          </mxGeometry>
        </mxCell>
        <mxCell id="1i7YaApMtN83JDX_QkKB-1" value="&lt;font style=&quot;font-size: 24px&quot;&gt;Internet&lt;/font&gt;" style="ellipse;shape=cloud;whiteSpace=wrap;html=1;fillColor=#dae8fc;strokeColor=#6c8ebf;strokeWidth=5;" vertex="1" parent="1">
          <mxGeometry x="670" y="70" width="140" height="70" as="geometry" />
        </mxCell>
        <mxCell id="1i7YaApMtN83JDX_QkKB-3" value="" style="shape=cylinder3;whiteSpace=wrap;html=1;boundedLbl=1;backgroundOutline=1;size=15;fontSize=24;strokeWidth=5;fillColor=#dae8fc;strokeColor=#6c8ebf;" vertex="1" parent="1">
          <mxGeometry x="720" y="280" width="40" height="60" as="geometry" />
        </mxCell>
        <mxCell id="1i7YaApMtN83JDX_QkKB-7" style="edgeStyle=orthogonalEdgeStyle;rounded=0;orthogonalLoop=1;jettySize=auto;html=1;fontSize=24;endArrow=none;endFill=0;" edge="1" parent="1" source="1i7YaApMtN83JDX_QkKB-6" target="1i7YaApMtN83JDX_QkKB-3">
          <mxGeometry relative="1" as="geometry" />
        </mxCell>
        <mxCell id="1i7YaApMtN83JDX_QkKB-6" value="" style="shape=image;html=1;verticalAlign=top;verticalLabelPosition=bottom;labelBackgroundColor=#ffffff;imageAspect=0;aspect=fixed;image=https://cdn2.iconfinder.com/data/icons/whcompare-isometric-web-hosting-servers/50/firewall-128.png;fontSize=24;strokeWidth=5;" vertex="1" parent="1">
          <mxGeometry x="590" y="300" width="78" height="78" as="geometry" />
        </mxCell>
        <mxCell id="1i7YaApMtN83JDX_QkKB-10" style="edgeStyle=orthogonalEdgeStyle;rounded=0;orthogonalLoop=1;jettySize=auto;html=1;fontSize=24;endArrow=none;endFill=0;" edge="1" parent="1" source="1i7YaApMtN83JDX_QkKB-8" target="1i7YaApMtN83JDX_QkKB-9">
          <mxGeometry relative="1" as="geometry">
            <Array as="points">
              <mxPoint x="500" y="370" />
              <mxPoint x="500" y="370" />
            </Array>
          </mxGeometry>
        </mxCell>
        <mxCell id="1i7YaApMtN83JDX_QkKB-8" value="" style="verticalLabelPosition=bottom;sketch=0;aspect=fixed;html=1;verticalAlign=top;strokeColor=none;align=center;outlineConnect=0;shape=mxgraph.citrix.router;fontSize=24;" vertex="1" parent="1">
          <mxGeometry x="570" y="350.48" width="57.26" height="38" as="geometry" />
        </mxCell>
        <mxCell id="1i7YaApMtN83JDX_QkKB-9" value="" style="verticalLabelPosition=bottom;sketch=0;aspect=fixed;html=1;verticalAlign=top;strokeColor=none;align=center;outlineConnect=0;shape=mxgraph.citrix.switch;fontSize=24;" vertex="1" parent="1">
          <mxGeometry x="420" y="355.72" width="61" height="27.52" as="geometry" />
        </mxCell>
        <mxCell id="1i7YaApMtN83JDX_QkKB-11" value="" style="verticalLabelPosition=bottom;sketch=0;aspect=fixed;html=1;verticalAlign=top;strokeColor=none;align=center;outlineConnect=0;shape=mxgraph.citrix.switch;fontSize=24;" vertex="1" parent="1">
          <mxGeometry x="310" y="260" width="61" height="27.52" as="geometry" />
        </mxCell>
        <mxCell id="1i7YaApMtN83JDX_QkKB-12" value="" style="verticalLabelPosition=bottom;sketch=0;aspect=fixed;html=1;verticalAlign=top;strokeColor=none;align=center;outlineConnect=0;shape=mxgraph.citrix.switch;fontSize=24;" vertex="1" parent="1">
          <mxGeometry x="220" y="287.52000000000004" width="61" height="27.52" as="geometry" />
        </mxCell>
        <mxCell id="1i7YaApMtN83JDX_QkKB-13" value="" style="triangle;whiteSpace=wrap;html=1;fontSize=24;strokeWidth=3;direction=north;fillColor=none;strokeColor=#CC0066;" vertex="1" parent="1">
          <mxGeometry x="430" y="70" width="140" height="130" as="geometry" />
        </mxCell>
        <mxCell id="1i7YaApMtN83JDX_QkKB-14" value="" style="verticalLabelPosition=bottom;sketch=0;aspect=fixed;html=1;verticalAlign=top;strokeColor=none;align=center;outlineConnect=0;shape=mxgraph.citrix.users;fontSize=24;fillColor=none;" vertex="1" parent="1">
          <mxGeometry x="486.81" y="100" width="26.39" height="22.5" as="geometry" />
        </mxCell>
        <mxCell id="1i7YaApMtN83JDX_QkKB-15" value="" style="verticalLabelPosition=bottom;sketch=0;aspect=fixed;html=1;verticalAlign=top;strokeColor=none;align=center;outlineConnect=0;shape=mxgraph.citrix.xenapp_web;fontSize=24;fillColor=none;" vertex="1" parent="1">
          <mxGeometry x="480" y="130" width="18.01" height="21.33" as="geometry" />
        </mxCell>
      </root>
    </mxGraphModel>
  </diagram>
</mxfile>
